<svg xmlns="http://www.w3.org/2000/svg" width="1066" height="719" fill="none"><path fill="url(#a)" d="M748.459 90.33c-2.563-.415-7.283-.37-10.403.127-7.096 1.204-20.335 6.492-27.886 11.177-3.162 1.935-5.893 3.505-6.121 3.366-.152-.093-.262-1.622-.081-3.286.277-4.216-1.344-11.99-3.017-14.89-.845-1.35-3.075-3.337-5.051-4.543-3.269-1.993-4.063-2.06-8.685-.808-6.214 1.638-11.3 5.53-16.073 12.328-6.346 8.866-5.32 8.552-12.922 3.915-9.502-5.796-17.022-7.147-22.881-4.04-5.597 2.85-7.119 8.081-4.583 15.892.837 2.39 2.734 5.948 4.369 7.885 3.147 3.903 18.343 16.096 26.46 21.256 16.766 10.644 78.596 46.584 81.873 47.539 4.982 1.578 15.385-.429 21.125-4.026 4.85-2.993 9.838-9.973 10.161-14.264.659-10.143-6.129-17.311-22.547-23.567-4.066-1.541-7.491-3.108-7.626-3.399-.013-.321 2.236-2.812 5.068-5.573 10.374-10.168 15.613-22.005 13.73-31.401-1.574-7.85-6.169-12.115-14.91-13.688Zm8.382 12.421c3.778 7.315-1.461 19.152-13.477 30.302-5.786 5.553-6.326 6.267-6.313 8.468.188 3.455.72 3.779 14.351 8.962 8.057 3.035 9.974 3.996 13.082 6.936 4.262 3.957 5.425 7.693 3.894 12.084-1.733 4.893-5.654 8.244-12.054 10.186-10.334 3.092-7.29 4.427-49.069-20.953-20.343-12.304-42.299-25.383-48.899-29.096-13.43-7.565-17.632-11.277-21.274-18.301-1.205-2.301-2.063-5.852-1.895-7.837.134-3.468.273-3.697 2.772-4.887 4.538-2.138 9.63-.911 18.752 4.653 5.853 3.57 8.547 4.796 9.573 4.482.827-.33 3.955-3.747 6.934-7.776 8.857-11.614 15.564-15.77 20.657-12.664 3.345 2.04 5.093 11.145 3.673 18.944-.88 5.205-.812 6.29.784 7.264 1.596.974 3.205.389 11.001-4.356 11.587-7.026 15.204-8.682 24.91-11.427 11.786-3.25 19.167-1.67 22.598 5.016Z"/><path fill="url(#b)" d="M685.792 162.974c-4.256 1.163-11.482 5.315-12.642 7.218-1.254 2.054.934 3.597 4.071 2.901 6.793-1.39 15.183-7.964 13.261-10.285-.393-.553-2.516-.491-4.69.166Z"/><path fill="url(#c)" d="M714.202 182.913c-1.148.344-3.956 1.868-6.442 3.379-8.15 5.155-8.368 9.616-.246 6.218 8.075-3.322 13.991-11.823 6.688-9.597Z"/><path fill="url(#d)" d="M645.32 144.342c-2.968.591-8.983 4.126-10.004 5.8-.975 1.597-.007 2.918 2.176 3.101 4.336.244 14.077-7.177 11.493-8.753-.608-.371-2.242-.428-3.665-.148Z"/><path fill="url(#e)" d="M675.341 191.051c-2.786.806-6.679 2.399-8.658 3.592-2.917 1.875-3.364 2.438-2.916 3.755.731 2.221 3.539 2.576 8.01 1.232 4.272-1.361 9.159-5.27 9.636-7.59.429-2.243-.517-2.403-6.072-.989Z"/><path fill="url(#f)" d="M640.066 170.055c-1.419-.239-7.434 3.296-8.502 5.046-.371.608-.24 1.419.292 1.744 1.825 1.113 4.611.307 7.747-2.27 3.566-2.94 3.697-4.008.463-4.52Z"/><path fill="url(#g)" d="M368.602 117.878c-29.692 5.398-35.799 27.053-13.449 47.799 15.074 13.917 40.672 26.468 59.904 29.33 7.277 1.04 18.062.455 23.52-1.301 8.056-2.536 13.059-9.17 11.89-15.673-1.819-9.82-14.424-19.51-31.122-23.802-10.46-2.666-27.288-2.926-28.133-.39-.324.975.975 1.171 11.89 2.016 10.981.845 19.167 2.926 27.288 6.893 10.071 4.943 15.919 11.446 15.919 17.689 0 6.634-8.837 11.251-21.701 11.251-21.246 0-50.483-13.072-67.636-30.24-8.121-8.129-10.98-13.202-10.98-19.835-.065-3.512.26-4.748 1.754-7.349 8.577-14.632 40.153-17.038 77.122-5.853 20.206 6.048 34.89 12.226 47.039 19.64 8.577 5.268 15.334 7.999 10.981 4.422-3.509-2.926-19.427-12.681-25.859-15.868-16.438-8.194-41.517-16.063-59.514-18.729-8.252-1.171-22.48-1.171-28.913 0Z"/><path fill="url(#h)" d="M388.808 139.729c-5.262.781-10.33 3.382-11.954 6.048-2.014 3.252-1.82 7.869.519 11.511 4.159 6.633 16.178 13.657 28.783 16.843 6.107 1.561 16.373 2.472 17.023 1.431.649-1.04-.26-1.366-5.848-2.146-15.268-2.081-35.215-12.876-37.359-20.16-1.104-3.577 0-5.593 4.223-7.674 2.729-1.366 4.354-1.626 11.695-1.886 9.161-.325 14.684.455 26.379 3.512 14.554 3.837 31.771 11.381 43.141 18.924 7.732 5.073 16.828 13.982 19.492 18.99 3.508 6.568 2.209 12.941-3.639 17.949-11.76 10.08-35.864 12.746-64.907 7.088-14.683-2.861-19.426-4.552-45.935-16.518-3.378-1.496-6.237-2.536-6.432-2.341-.974.91.91 2.601 7.017 6.178 12.67 7.544 29.497 13.657 45.675 16.583 24.885 4.618 45.221 3.447 59.19-3.446 6.237-3.122 10.135-6.308 12.539-10.341 1.495-2.601 1.754-3.771 1.754-7.933 0-4.098-.324-5.528-1.949-8.78-2.664-5.333-12.474-15.087-20.401-20.355-24.039-15.868-59.839-26.533-79.006-23.477Z"/><path fill="url(#i)" d="M332.283 170.944c-.91 1.366.455 6.569 2.924 11.511 3.898 7.739 12.344 17.169 12.344 13.722 0-.455-2.079-3.967-4.613-7.869-2.533-3.837-5.717-9.495-7.146-12.551-1.43-3.057-2.729-5.528-2.859-5.528-.13 0-.455.325-.65.715Z"/><path fill="url(#j)" d="M505.108 185.187c-.195.325.13 2.276.715 4.227.974 3.382.974 3.902-.065 7.024-.585 1.885-1.949 4.877-2.989 6.698-2.079 3.707-2.404 5.463-.91 5.463 1.17 0 4.483-4.423 6.563-8.78 2.209-4.617 2.079-8.389-.39-12.226-2.014-3.251-2.274-3.447-2.924-2.406Z"/><path fill="url(#k)" d="M768.132 252.115c-1.082.689-5.324 3.96-9.371 7.224l-7.4 5.919-5.079-2.101c-6.859-2.82-17.037-5.719-19.894-5.62-1.493.052-2.711.55-3.461 1.422-1.748 2.078-.24 4.303 9.384 13.729 4.78 4.714 8.565 8.877 8.451 9.336-.116.395-2.764 2.765-5.862 5.28-3.098 2.515-6.626 5.762-7.877 7.172-2.251 2.551-2.251 2.551-2.383 9.974-.227 12.176-4.637 27.426-11.03 37.995-8.542 14.222-23.794 29.915-40.793 42.089-7.674 5.538-9.616 7.623-8.837 9.483.991 2.308 7.938.179 26.117-8.002 13.121-5.922 32.919-17.999 46.023-28.15 13.294-10.289 25.992-24.656 30.708-34.841.785-1.719 2.148-3.654 2.974-4.203 1.458-1.092 2.285-3.463 5.04-15.858l1.18-5.312 3.744-.781c6.965-1.609 14.095-4.069 15.416-5.352.754-.742 1.296-1.997 1.266-2.842-.068-1.949-1.792-2.931-13.065-7.419-4.615-1.856-8.709-3.666-9.043-3.915-.403-.376-.469-4.148-.137-9.561.502-9.843-.191-14.829-2.189-16.191-1.532-1.053-1.532-1.053-3.882.525Zm2.345 9.484c.097 2.795.007 7.678-.209 10.809l-.321 5.738 1.947 1.754c1.138.937 5.502 3.062 9.654 4.675 7.777 3.048 10.225 4.264 9.661 4.869-.19.137-3.918 1.373-8.362 2.569-8.302 2.436-10.466 3.748-11 7.085-.921 5.303-2.761 14.086-3.244 15.144-.546 1.126-.678 1.065-1.906-.584-.75-1.015-3.094-4.838-5.238-8.537-2.144-3.7-4.745-7.449-5.755-8.455-2.215-2.005-4.754-2.112-14.247-.285-6.782 1.277-11.645 1.642-11.672.862-.009-.26 3.393-3.372 7.563-6.836 6.445-5.365 7.573-6.575 7.521-8.07-.079-2.275-2.254-4.997-10.139-12.987-5.525-5.599-6.885-7.309-5.846-7.345.195-.007 5.258 1.639 11.176 3.581l10.79 3.659 4.322-2.819c2.353-1.513 6.474-4.52 9.004-6.56 2.592-2.107 5.07-3.755 5.399-3.636.459.114.796 2.314.902 5.369Zm-21.525 44.673c-7.563 25.511-24.266 48.086-47.5 64.186-5.775 4.041-15.598 9.458-15.628 8.613-.004-.13 3.27-3.172 7.239-6.824 9.202-8.324 18.083-18.394 22.89-25.979 7.457-11.777 11.977-25.73 12.085-37.577l.148-6.968 4.932-.236c2.727-.095 7.584-.655 10.75-1.22 3.23-.568 6.083-.798 6.352-.547.331.184-.279 3.199-1.268 6.552Zm8.392.163c.832 1.468 2.893 4.65 4.537 7.065 1.709 2.413 3.085 4.578 3.092 4.773.027.78-5.219 8.836-9.691 14.848-11.49 15.432-31.163 31.083-55.545 44.099-12.384 6.548-16.871 8.396-8.335 3.349 14.845-8.716 24.217-15.874 34.202-25.983 13.439-13.612 23.343-31.656 26.902-48.959.941-4.718.938-4.783 2.159-3.328.612.759 1.846 2.603 2.679 4.136Z"/><path fill="url(#l)" d="M708.127 280.167c-.121.264-.372 6.129-.524 12.967-.371 15.5-1.699 25.893-4.987 37.915-2.71 9.921-2.962 12.012-1.599 11.964 1.883-.065 4.629-5.236 7.382-13.922 2.23-6.91 3.137-12.603 3.448-22.374.503-13.553-1.757-29.937-3.72-26.55Z"/><path fill="url(#m)" d="M789.106 305.59c-.491.863-1.875 4.035-3.135 7.072-4.615 11.223-12.455 23.209-23.455 35.89-6.003 6.846-7.039 8.834-4.702 8.753 1.624-.056 9.639-6.973 14.201-12.272 4.125-4.764 11.091-15.678 13.931-21.893 3.747-8.135 6.421-19.095 4.603-19.031-.324.011-.951.683-1.443 1.481Z"/><path fill="url(#n)" d="M685.79 357.533c-2.751 3.155-3.207 4.992-1.324 4.927 1.234-.043 5.784-5.667 5.734-7.097-.059-1.69-1.85-.847-4.41 2.17Z"/><path fill="url(#o)" d="M733.674 367.906c-3.192 1.672-5.223 3.11-5.2 3.76.047 1.364 1.342 1.189 6.274-.935 4.674-2.049 6.951-3.885 6.263-4.968-.753-1.08-1.785-.849-7.337 2.143Z"/><path fill="url(#p)" d="M237.865 343.04c-2.729 5.001-2.304 10.941 1.313 17.871 7.634 14.533 30.626 25.726 52.68 25.584 6.202-.05 5.983-.133 5.673 2.332-.4 3.008 1.728 4.523 5.678 4.009 2.582-.413 3.112-.233 5.354 2 3.365 3.349 5.729 8.536 6.797 14.814.77 4.972.729 6.362-.437 21.449-.745 9.101-.366 12.191 1.921 16.714 3.572 7.203 9.519 10.138 19.475 9.635 2.122-.163 9.01-1.265 15.33-2.6 14.988-3.075 16.891-3.321 21.765-3.217 5.069.043 9.601 2.233 13.844 6.472 4.486 4.465 7.106 9.229 10.108 18.201 2.035 6.065 2.757 7.628 3.664 7.777 1.504.201 1.499-1.476-.008-7.92-1.935-8.377-3.744-12.122-8.62-18.468-3.723-4.853-4.973-6.037-7.917-7.686-7.416-4.202-12.433-4.283-30.502-.597-15.615 3.205-20.411 3.766-25.189 2.793-4.816-1.026-7.406-3.409-9.25-8.65-1.226-3.603-1.241-8.636.014-21.706 1.056-11.005-1.222-20.418-6.453-26.589-1.652-1.856-3.509-3.885-4.084-4.353-.909-.708-.925-1.177-.06-2.199 1.732-2.044 1.929-4.667.45-6.727-1.252-1.743-1.29-1.796 2.405-7.011 13.364-19.041 18.722-42.102 12.628-54.378-5.334-10.661-15.879-12.537-26.517-4.739-5.768 4.221-9.733 9.95-13.476 19.442-1.726 4.281-3.438 7.912-3.868 7.98-.446.16-3.607-1.013-7.125-2.57-15.734-6.877-31.084-5.864-35.593 2.337Zm12.324-1.883c5.883-.941 11.22.031 20.16 3.459 4.644 1.79 9.189 3.33 10.164 3.351 3.038.22 4.951-1.794 6.772-6.944 2.16-5.793 5.856-13.01 8.258-16.015 2.786-3.361 8.403-7.234 11.748-8.035 8.833-2.178 14.329 4.363 14.373 16.901.047 11.094-5.978 28.549-14.042 40.823-1.73 2.603-3.733 5.162-4.419 5.654-1.742 1.251-14.109 1.404-21.38.299-10.809-1.686-21.164-5.86-29.507-11.799-4.217-2.977-9.602-10.479-10.748-14.86-1.795-6.957 1.357-11.701 8.621-12.834Z"/><path fill="url(#q)" d="M417.147 559.242c-1.848-.417-3.529.631-2.723 1.748.646 1.005 4.98 1.49 6.06.736.734-.598-1.148-1.989-3.337-2.484Z"/><path fill="url(#r)" d="M343.375 513.85c-.495.368-1.467 1.99-2.135 3.744-1.882 4.633-2.212 4.879-5.828 4.499-5.576-.636-5.972 1.069-1.301 5.276l2.831 2.528-1.526 4.803c-.885 2.633-1.408 5.201-1.13 5.712.583 1.437 4.063.533 7.722-1.99l3.314-2.367 2.02 1.646c1.472 1.184 2.313 1.453 3.186 1.11 1.091-.429 1.143-1.185.616-4.406-.688-4.126-.402-4.878 2.826-7.463 2.898-2.34 2.582-3.591-1.055-3.827-1.475-.156-3.02-.44-3.34-.663-.373-.26-1.324-2.191-2.11-4.245-1.625-4.145-2.665-5.266-4.09-4.357Zm1.976 7.164.556 1.815-1.618-.178c-1.438-.209-1.561-.374-1.186-1.935.238-1.023.509-1.866.62-2.026.372-.533 1.124.546 1.628 2.324Zm.802 8.961c-1.264 1.814-1.355 1.831-3.38.419-1.386-.966-2-1.79-1.804-2.525.455-1.903 1.077-2.341 3.202-2.208 2.881.185 3.655 1.914 1.982 4.314Zm-8.392-3.867a.651.651 0 0 1-.905.162c-.266-.185-.347-.638-.161-.905a.651.651 0 0 1 .905-.162c.32.223.384.585.161.905Zm3.013 9.313c-2.824 2.234-3.357 1.862-1.956-1.284.758-1.77.976-1.856 2.202-1.001 1.279.892 1.258 1.035-.246 2.285Z"/><path fill="url(#s)" d="M388.455 546.775c-1.31-.279-2.449-.121-2.549.363-.466 1.578 5.634 3.848 7.245 2.672.899-.721-1.788-2.435-4.696-3.035Z"/><path fill="url(#t)" d="M374.938 540.604c-2.328-.751-3.212-.732-3.589.036-.493 1.162.13 1.517 5.266 3.353 2.024.618 3.552.811 3.887.331.669-.961-1.5-2.393-5.564-3.72Z"/><path fill="url(#u)" d="M358.299 533.684c-2.797-.76-4.516-.452-4.274.906.177.995 9.456 3.816 10.355 3.095.899-.721-2.747-3.104-6.081-4.001Z"/><path fill="url(#v)" d="M350.92 540.749c-.947.45.843 4.472 2.837 6.496 3.776 3.9 3.161-1.126-.7-5.245-.811-.882-1.701-1.423-2.137-1.251Z"/><path fill="url(#w)" d="M238.655 463.773c-.297.427-.896 2.309-1.351 4.211-.455 1.903-.979 3.677-1.165 3.944-.186.267-1.847.378-3.737.249-4.878-.387-5.249.94-1.101 4.306l3.226 2.645-1.217 4.7c-.868 3.518-.935 4.977-.156 5.678 1.13 1.105 2.502.159 5.105-3.576l1.748-2.507 3.949 2.515c5.16 3.278 6.112 2.594 3.718-2.721-.946-2.165-1.679-4.182-1.653-4.56.026-.378 1.361-1.271 3-2.031 4.48-2.11 3.604-3.354-2.482-3.712l-3.781-.257-1.022-3.645c-.552-2.049-.837-3.913-.689-4.126.149-.214-.182-.761-.768-1.17-.586-.409-1.326-.37-1.624.057Zm1.967 14.45c-1.387 1.649-1.909 1.603-2.216-.117-.269-1.773 1.364-3.092 2.457-1.934.528.606.46 1.272-.241 2.051Zm3.147 3.779c-.026.378-.319.571-.585.385-.32-.223-.4-.675-.215-.942.224-.32.479-.459.586-.385.159.111.277.511.214.942Z"/><path fill="url(#x)" d="M319.718 519.953c-2.519-.249-2.038.879 1.427 3.294 1.919 1.337 3.613 2.201 3.762 1.987 1.078-1.547-2.399-5.08-5.189-5.281Z"/><path fill="url(#y)" d="M307.428 512.815c-1.321-.604-2.365-.697-2.88-.185-.718.689-.456 1.109 1.729 2.633 1.386.965 3.203 1.994 4.008 2.317 1.736.576 2.863-.699 1.424-1.702a10.159 10.159 0 0 1-1.61-1.44c-.299-.367-1.509-1.13-2.671-1.623Z"/><path fill="url(#z)" d="m381.822 567.201-3.209.855-2.72-2.688c-3.477-3.533-6.611-5.4-7.568-4.482-.388.443-.474 2.84-.097 5.481l.566 4.754-2.884.844c-1.597.472-3.108 1.163-3.331 1.483-.52.747 1.558 2.196 5.117 3.567l2.898 1.069.855 4.796c1.213 6.554 2.305 6.918 5.78 2.047l2.656-3.698 2.493.628c3.425.881 4.237-.852 1.963-4.18-2.044-3.09-2.078-4.064.116-7.212 2.38-3.415 1.5-4.425-2.635-3.264Zm-7.095 1.317c.395.91.284 1.07-1.164 1.329-1.485.313-1.555.185-1.974-2.168l-.488-2.48 1.599 1.114c.906.632 1.786 1.641 2.027 2.205Zm4.033 5.348c.113.634-.178 1.62-.661 2.313-1.079 1.548-3.971 1.038-5.012-.877-.812-1.675-.238-2.385 2.279-2.929 2.247-.496 3.104-.136 3.394 1.493Zm-3.128 8.125c-.781 1.12-.834 1.083-1.177-.583-.279-1.304-.126-1.752.54-1.684 1.315.044 1.567.933.637 2.267Z"/><path fill="url(#A)" d="M289.009 501.405c-.644-.212-1.352.008-1.58.563-.361.858.098 1.336 2.304 2.716 3.134 1.867 4.79 1.99 4.122.336-.428-1.091-2.843-2.853-4.846-3.615Z"/><path fill="url(#B)" d="M272.274 491.327c-.324.011-.819.38-1.116.807-.335.48.422 1.325 2.928 3.071 3.411 2.377 5.424 2.671 4.617.761-.481-1.128-5.577-4.839-6.429-4.639Z"/><path fill="url(#C)" d="M328.444 532.773c-2.432.762-3.448 1.878-2.382 2.621.907.631 4.696-.374 5.44-1.441.855-1.227-.845-1.857-3.058-1.18Z"/><path fill="url(#D)" d="M359.418 554.123c-.781 1.12 2.599 7.519 3.776 7.308 1.357-.243 1.151-2.447-.418-4.968-1.554-2.43-2.726-3.247-3.358-2.34Z"/><path fill="url(#E)" d="M258.452 484.229c-1.322-.604-2.312-.66-2.647-.18-1.19 1.708 5.53 5.361 7.04 3.876.883-.811-.269-1.773-4.393-3.696Z"/><path fill="url(#F)" d="M319.051 536.136c-2.895.518-6.305 2.343-6.144 3.248.322 1.81 7.587.136 9.186-2.158.967-1.388.125-1.657-3.042-1.09Z"/><path fill="url(#G)" d="M248.102 494.534c-.558.8.396 4.319 1.36 4.753 1.572.699 2.23-.586 1.135-2.538-1.143-2.224-1.974-2.962-2.495-2.215Z"/><path fill="url(#H)" d="M356.051 570.088c-3.338.131-2.019 2.556 1.389 2.553.937.019 1.879-.196 2.102-.516.483-.694-1.867-2.094-3.491-2.037Z"/><path fill="url(#I)" d="M346.316 568.376c-2.642-.414-4.759.805-3.266 1.845 1.439 1.003 6.514 1.449 7.109.595.743-1.067-.733-2.017-3.843-2.44Z"/><path fill="url(#J)" d="M252.447 504.776c-.872.343-.166 6.147.9 6.89 1.226.854 2.085-1.401 1.337-3.508-1.156-3.342-1.417-3.762-2.237-3.382Z"/><path fill="url(#K)" d="M298.791 541.911c-3.534.867-4.704 1.637-4.17 2.802.257.654 8.693-.997 9.288-1.85.855-1.227-1.946-1.753-5.118-.952Z"/><path fill="url(#L)" d="M254.611 519.284c-.744 1.067.285 5.272 1.474 6.18 1.439 1.003 1.996-.591 1.262-3.401-.734-2.811-1.881-4.006-2.736-2.779Z"/><path fill="url(#M)" d="M312.462 560.476c-3.936-.603-5.739.28-3.607 1.766 1.546 1.078 8.788 2.162 9.724 1.388 1.064-.844-2.128-2.514-6.117-3.154Z"/><path fill="url(#N)" d="M285.624 545.576c-3.396.328-7.205 2.271-6.963 3.629.242 1.357.982 1.318 5.707-.462 2.852-1.024 4.059-1.847 3.946-2.481-.112-.633-.938-.812-2.69-.686Z"/><path fill="url(#O)" d="M297.867 556.645c-5.134-1.041-6.976-.898-6.016.564 1.207 1.792 11.357 3.476 11.408 1.926.078-1.134-.78-1.494-5.392-2.49Z"/><path fill="url(#P)" d="m267.215 540.514-2.469.816-2.325-2.572c-1.232-1.414-2.859-2.944-3.605-3.464-1.972-1.374-3.103.929-2.389 4.677l.602 3.114-3.747.718c-2.353.421-3.955 1.128-4.204 1.827-.472 1.018-.067 1.459 4.149 4.16l4.589 2.96-.177 2.413c-.715 9.094 2.606 11.488 5.4 3.843l1.187-3.294 1.609.645c4.737 1.954 5.418 2.112 5.939 1.365.298-.427-.467-2.624-1.701-4.832-2.568-4.723-2.644-5.41-.785-8.077 2.789-4.002 2.046-5.55-2.073-4.299Zm-6.418 1.71c-.186.267-.478.459-.585.385-.16-.112-.241-.564-.214-.942.063-.432.318-.571.585-.385.319.223.437.622.214.942Zm2.968 4.605c.113.633-.402 1.94-1.108 2.953l-1.339 1.921-.516-2.896c-.435-2.444-.281-2.891.789-3.176 1.506-.457 1.916-.25 2.174 1.198Zm-6.557 1.454c-.154.448-.82.38-1.673-.214-1.279-.892-1.311-1.073-.241-1.358 1.378-.386 2.247.298 1.914 1.572Z"/><path fill="url(#Q)" d="M279.894 551.412c-2.444-.356-4.044 1.144-2.116 2.013 2.036.943 7.228 1.788 7.637 1.201.558-.801-2.842-2.853-5.521-3.214Z"/><path fill="url(#R)" d="M793.216 615.255c2.297 8.539 6.767 15.827 14.268 22.944 6.745 6.402 10.763 8.781 19.202 11.415 4.822 1.531 7.405 1.833 14.941 1.639 8.638-.222 9.284-.147 12.231 1.754 11.373 7.478 31.595 7.142 51.844-.781 18.293-7.184 43.101-23.5 56.167-36.986 4.475-4.621 5.452-5.934 5.244-6.848-.459-1.69-1.408-1.067-8.819 5.514-17.243 15.525-37.271 28.316-54.749 35.019-13.379 5.217-27.032 7.04-37.338 5.052-4.116-.86-10.758-3.402-10.825-4.182-.008-.275 1.935-1.567 4.29-2.915 5.026-2.934 7.309-5.245 9.407-9.345 2.185-4.286 1.888-8.509-.865-11.749-2.845-3.237-4.477-4.068-8.113-4.205-4.142-.169-7.816 1.718-11.114 5.665-4.365 5.262-5.316 10.988-2.822 16.579.685 1.546 1.002 3.101.644 3.478-.894.943-11.013.835-15.823-.237-14.012-2.996-27.097-14.338-33.839-29.245-1.37-3.092-2.817-5.629-3.14-5.667-1.202-.245-1.408.634-.791 3.101Zm61.817 11.1c2.762-1.588 7.732-1.44 9.619.351 3.68 3.491 3.077 8.473-1.801 13.518-4.025 4.241-9.937 6.692-11.824 4.902-2.358-2.239-3.228-7.274-1.997-11.122 1.322-3.85 2.746-5.634 6.003-7.649Z"/><path fill="url(#S)" d="M888.373 642.05c1.227 1.164 8.76.879 14.746-.517 7.903-1.904 13.933-5.14 22.571-12.259 3.96-3.228 5.292-5.01 4.349-5.905-.755-.716-2.844.257-8.856 4.136-10.715 6.85-19.215 10.517-27.871 11.798-4.993.726-6.26 1.494-4.939 2.747Z"/><path fill="url(#T)" d="M977.473 558.928c.171 1.237 2.249 5 6.379 11.607l2.884 4.707-4.276 10.364c-4.924 11.897-5.342 13.471-4.068 14.679 1.509 1.433 4.237.259 11.543-5.078 3.834-2.811 7.264-5.199 7.721-5.302.959-.255 4.874 3.461 10.904 10.432 5.64 6.522 6.34 6.826 9.16 3.857.98-1.037 6.08-9.996 11.24-19.876 5.25-9.883 10.55-19.721 11.87-21.961 2.82-4.763 3.4-7.26 1.99-8.236-.61-.398-4.65-.386-9.15.006-4.5.391-14.56.696-22.38.621-23.863-.168-25.793-.118-28.682.186-2.888.304-5.32 2.206-5.135 3.994Zm17.001-.437c6.206.07 15.316.112 20.186.079 4.87-.034 9.15.086 9.48.216.6.214-2.67 1.586-22.69 9.457-8.831 3.446-11.705 4.301-12.137 3.623-4.813-8.061-7.091-12.462-6.644-12.933.268-.283 5.551-.465 11.805-.442Zm18.266 9.094c17.58-6.337 20.5-7.148 17.58-4.728-9.81 8.068-26.92 19.957-33.139 23.014-2.223 1.114-5.709 3.181-7.783 4.706-2.077 1.433-4.112 2.726-4.524 2.783-.412.057.118-2.486 1.232-5.549 1.022-3.061 2.252-6.909 2.67-8.483l.799-2.825 3.179-1.461c1.819-.783 10.786-4.186 19.986-7.457Zm-5.4 16.369c4.02-2.54 24.19-16.99 25.44-18.31 1.21-1.18-.13 1.935-3.59 8.507-2.01 3.73-5.76 11.367-8.37 16.951-2.57 5.538-4.93 10.288-5.19 10.571-.5.518-2.1-1.096-10.68-10.76-1.61-1.798-2.72-3.471-2.45-3.754.23-.235 2.44-1.718 4.84-3.205Z"/><path fill="url(#U)" d="M350.242 645.02c-.84.352-4.296 3.21-7.747 6.417-3.45 3.208-7.156 6.311-8.27 6.849l-2.049.999-4.722-11.265c-4.672-11.145-4.747-11.325-6.664-11.86-3.944-1.165-6.916.997-17.379 12.709-3.714 4.093-6.994 7.37-7.249 7.266-.255-.104-.425-8.416-.308-18.399.092-10.042.055-19.044-.107-20.104-.576-3.562-4.486-5.657-7.845-4.249-2.339.98-5.668 4.983-17.075 20.331-6.347 8.578-12.449 16.561-13.628 17.618-4.124 4.124-4.589 1.501-2.636-16.718 2.365-22.619 2.368-29.172-.104-27.502-1.159.768-1.888 4.244-4.082 19.535-3.222 21.921-2.697 29.732 2.099 32.09 3.639 1.785 7.728-2.253 21.64-21.047 14.11-19.159 15.368-20.532 16.247-18.435.252.599.314 7.477.138 15.3-.44 22.165-.007 26.563 2.907 28.3 2.268 1.374 4.991-.542 12.583-9.008 9.315-10.245 11.802-12.556 12.908-12.104.596.244 1.726 2.94 3.532 8.594 4.371 13.455 6.842 16.154 12.659 13.715 3.899-1.634 6.42-4.03 12.349-11.587 4.876-6.2 5.741-8.677 2.803-7.445Z"/><path fill="url(#V)" d="M817.343 306.543c-1.472 6.389.495 17.532 3.817 21.748 4.707 6.031 5.145 6.312 8.419 6.869 6.384 1.009 13.841-2.544 18.404-8.571 3.346-4.492 4.153-8.761 2.149-11.899-.725-1.16-1.648-2.37-2.086-2.651-1.677-.999-6.947-1.215-11.028-.514l-4.296.794-1.815-4.638c-1.419-3.689-2.272-5.009-3.969-6.098-2.846-1.826-4.506-1.888-6.551-.266-2.17 1.696-2.29 2.004-3.044 5.226Zm6.843-.55c.602.387 1.613 2.424 2.209 4.505 2.111 7.067 2.897 7.649 9.817 6.377 8.088-1.527 10.3-.879 9.535 2.721-.963 4.632-6.707 9.129-13.534 10.616l-4.705 1.071-1.718-2.26c-2.399-3.005-3.618-6.644-4.015-11.685-.686-8.083.331-12.679 2.411-11.345Z"/><path fill="url(#W)" d="M762.384 394.484c-2.822 8.611.796 18.266 8.788 23.394l3.886 2.493-6.013 8.648c-10.407 15.015-22.77 27.539-35.974 36.436-4.133 2.829-7.532 5.357-7.473 5.626.251.934 3.785-.118 7.946-2.389 14.202-7.562 30.725-23.438 41.821-40.249l5.127-7.75 3.542-.583c12.459-2.196 22.71-13.837 28.066-31.938 2.022-6.885 3.955-16.761 5.503-27.965 1.161-8.673 1.185-11.36.199-11.992-.93-.597-2.136 3.57-4.405 15.777-5.487 28.903-11.474 41.967-22.431 48.446-2.943 1.817-7.461 3.318-8.282 2.791-.219-.14-.126-1.007.216-2.022.362-.926.932-4.343 1.327-7.487.812-5.963.118-11.503-1.93-15.056-1.601-2.803-5.706-5.437-8.593-5.514-4.602-.173-9.507 3.859-11.32 9.334Zm9.526-3.768c1.898-.79 4.357.556 5.938 3.269 2.251 3.838 2.025 13.342-.424 19.568-.588 1.398-.928 1.566-2.342 1.121-4.373-1.493-8.429-8.419-8.39-14.261-.036-4.037 2.407-8.568 5.218-9.697Z"/><path fill="url(#X)" d="M351.907 235.568c.422 1.053 1.648 5.271 2.663 9.389 2.862 11.593 7.241 19.278 11.544 20.339 1.714.465 2.347.304 4.196-.96 2.151-1.44 4.915-5.798 5.319-8.356.16-.681.588-1.337.974-1.395 1.038-.09 11.189 7.055 14.708 10.336 2.824 2.598 5.333 6.162 5.594 7.897.242 1.606-2.982 5.968-7.039 9.601-8.872 7.905-12.167 12.671-12.249 17.809-.032 8.086 10.967 14.315 34.198 19.23 12.297 2.617 14.918 3.865 13.392 6.395-.363.646-3.536 3.16-7.05 5.594-10.899 7.553-13.978 11.565-13.137 17.154.851 5.654 8.31 11.956 17.575 14.964 5.724 1.767 11.744 2.438 12.618 1.255.82-1.109-.152-1.882-2.978-2.311-8.564-1.405-19.46-7.387-21.571-11.8-2.046-4.423-1.4-5.374 10.083-13.41 8.034-5.611 10.3-7.594 11.197-9.503 2.943-6.225-1.161-10.338-12.979-12.831-16.047-3.498-22.009-5.098-26.595-7.167-4.937-2.214-8.009-4.709-8.318-6.765-.377-2.505 2.3-6.128 9.363-12.512 8.963-8.182 10.479-10.776 9.619-16.494-.435-2.891-1.101-4.696-2.671-6.825-2.49-3.436-10.808-10.2-15.876-12.854l-3.647-1.948 3.822-1.692c4.511-1.928 6.244-3.962 7.152-7.975 2.466-11.147-11.299-18.274-29.819-15.487-7.332 1.103-10.338 2.541-10.916 5.256-.481 2.043-.33 2.612.828 5.066Zm9.575-4.989c15.829-2.316 28.452 3.34 23.834 10.671-1.282 1.967-1.466 2.061-7.951 3.102-3.656.616-6.991 1.183-7.431 1.315-1.074.293-.655 2.202.837 3.817 1.084 1.085 1.245 1.718.912 3.87-.296 2.41-3.021 7.025-4.178 7.199-.708.107-3.764-4.033-4.971-6.808-.598-1.355-2.172-6.572-3.46-11.634-1.343-4.989-2.569-9.206-2.717-9.315-1.036-.764.816-1.569 5.125-2.217Z"/><path fill="url(#Y)" d="M845.751 493.369c-1.614-.026-4.23.801-7.027 2.332-2.4 1.274-4.538 2.344-4.673 2.399-.134.056-.976-2.143-1.85-4.801-1.754-5.406-3.807-7.797-7.417-8.698-2.624-.646-6.931 1.036-9.066 3.489-4.819 5.634-4.109 17.979 1.622 27.624 3.847 6.366 3.914 5.993-4.729 16.317l-7.411 8.81-.128-5.888c-.229-10.029-5.674-20.2-10.828-20.118-2.024.049-3.885 1.792-4.363 4.221-.594 2.76-.023 9.723 1.028 12.276 1.064 2.737 5.205 9.359 7.669 12.367l1.655 1.958-3.417 3.233c-7.787 7.362-23.439 16.93-38.638 23.703-7.874 3.405-9.199 4.235-8.317 5.002 1.911 1.664 19.628-5.33 32.026-12.644 7.884-4.604 17.494-11.586 19.885-14.333 1.836-2.109 3.359-2.077 7.796.148 8.392 4.114 20.174 3.938 26.964-.497 3.884-2.483 4.149-7.339.427-9.199-3.727-1.952-12.49-2.078-22-.356l-3.276.597 3.153-3.721c1.702-2.054 4.58-5.756 6.391-8.232 3.195-4.462 3.329-4.517 7.203-5.801 6.129-1.994 11.069-5.195 16.06-10.334 5.503-5.728 7.165-9.023 6.936-13.707-.199-4.225-1.939-6.085-5.675-6.147Zm1.769 6.972c.075 3.773-4.663 9.909-10.817 14.208-5.764 3.949-11.055 6.069-11.749 4.689-.27-.58-1.528-2.796-2.737-4.97-3.394-5.799-4.489-8.994-4.878-13.989-.421-5.454.849-9.09 3.836-10.542 4.184-2.135 6.729 1.374 7.168 9.775.482 8.352 2.104 9.16 6.978 3.66 1.879-2.158 5.897-4.696 8.702-5.444 1.986-.599 3.487.448 3.497 2.613Zm-14.137 47.014c-2.24 1.585-13.808 2.206-18.36 1.003-2.11-.544-3.811-1.163-3.83-1.438-.107-1.559 14.637-3.554 20.221-2.745 3.817.563 4.387 1.491 1.969 3.18Zm-34.401-21.239c.823 1.924 1.619 5.462 1.777 7.755l.332 4.17L799.5 537c-3.24-2.217-6.136-10.17-5.247-14.655l.442-2.289 1.372 1.195c.784.682 2.085 2.849 2.915 4.865Z"/><path fill="url(#Z)" d="M875.304 407.28c-.91.715-2.664 2.991-3.834 5.007l-2.144 3.707-7.017.52c-8.186.65-9.875 1.171-10.85 3.317-1.17 2.536-.26 4.292 4.548 9.169 2.534 2.472 4.613 4.943 4.613 5.398 0 .455-.78 3.447-1.689 6.568-.975 3.187-1.56 6.309-1.3 6.894.585 1.626 2.989.975 9.161-2.536 2.859-1.626 5.523-2.992 5.848-2.992.39 0 2.404.911 4.548 1.951 4.548 2.211 6.757 2.406 8.836.715 1.299-1.04 1.559-1.951 1.754-6.113l.26-4.942 4.028-2.536c5.198-3.447 7.407-5.463 7.927-7.609.779-3.252-3.249-5.463-9.941-5.528-3.963 0-5.912-.975-6.432-3.057-.715-2.926-2.599-7.023-3.833-8.194-1.43-1.43-2.404-1.365-4.483.261Zm2.209 8.779c0 .52-.455.91-.975.91-1.104 0-1.169-.13-.585-1.56.455-1.171 1.56-.781 1.56.65Zm-11.695 7.088c0 .846-1.56 4.228-1.949 4.228-.78 0-4.548-3.252-4.548-3.902 0-.326.649-.651 1.494-.781 1.364-.195 5.003.13 5.003.455Zm11.89.261c1.689.65 2.014 1.365 2.728 5.267.39 2.211.325 2.341-3.118 4.227l-3.574 1.886-2.599-1.756-2.663-1.755.974-2.797c1.754-5.072 4.223-6.568 8.252-5.072Zm13.059 1.625c-.39 1.041-3.379 2.472-4.158 2.016-.26-.13-.65-.91-.845-1.625-.325-1.171 0-1.301 2.534-1.301 2.079 0 2.729.195 2.469.91Zm-24.3 13.007c0 .195-.259.52-.649.715-.325.195-.65.065-.65-.26 0-.39.325-.715.65-.715.39 0 .649.13.649.26Z"/><path fill="url(#aa)" d="M174.028 566.616c-.038 1.157.574 3.964 1.364 6.157l1.457 4.027-4.119 5.705c-4.772 6.683-5.461 8.311-4.446 10.438 1.188 2.528 3.117 2.962 9.945 2.422 3.522-.348 6.752-.349 7.1-.056.348.293 2.136 2.816 3.939 5.521 1.812 2.797 3.824 5.254 4.439 5.432 1.621.599 2.671-1.659 3.956-8.644.596-3.234 1.266-6.151 1.475-6.4.251-.298 2.244-1.254 4.42-2.225 4.62-2.057 6.191-3.622 6.236-6.301.04-1.665-.49-2.45-3.549-5.278l-3.615-3.38.652-4.716c.708-6.196.587-9.184-.721-10.963-1.986-2.69-6.271-1.031-10.629 4.049-2.551 3.033-4.552 3.897-6.479 2.955-2.7-1.337-7.048-2.532-8.739-2.341-2.015.173-2.592.96-2.686 3.598Zm8.14 3.961c.398.335.404.934.07 1.332-.711.845-.853.811-1.571-.558-.603-1.101.406-1.695 1.501-.774Zm-2.103 13.513c.647.544 2.231 3.914 1.98 4.212-.502.597-5.416 1.388-5.913.969-.249-.209-.08-.916.364-1.646.729-1.17 3.32-3.745 3.569-3.535Zm7.853-8.932c1.585-.874 2.341-.662 5.787 1.302 1.943 1.125 2.001 1.259 1.228 5.108l-.857 3.949-3.017.858-3.058.909-1.513-2.546c-2.753-4.608-2.308-7.46 1.43-9.58Zm9.65-8.948c.545.969-.284 4.177-1.134 4.48-.267.116-1.115-.088-1.788-.4-1.105-.505-.995-.837.636-2.776 1.338-1.591 1.906-1.963 2.286-1.304Zm-5.688 26.969c.149.125.231.533.129.957-.06.374-.368.539-.617.33-.299-.251-.338-.709-.129-.958.251-.298.518-.413.617-.329Z"/><path fill="url(#ab)" d="M259.623 242.791c-.038 1.157.575 3.965 1.365 6.157l1.457 4.027-4.119 5.705c-4.772 6.683-5.461 8.311-4.446 10.438 1.188 2.528 3.117 2.962 9.945 2.422 3.522-.348 6.751-.348 7.1-.055.348.293 2.136 2.815 3.939 5.52 1.811 2.797 3.824 5.254 4.439 5.432 1.62.599 2.67-1.659 3.956-8.643.596-3.235 1.265-6.152 1.475-6.401.251-.298 2.244-1.253 4.42-2.224 4.62-2.058 6.191-3.623 6.235-6.302.041-1.664-.489-2.449-3.549-5.278l-3.615-3.38.652-4.715c.709-6.197.588-9.185-.72-10.964-1.987-2.69-6.272-1.03-10.629 4.049-2.551 3.033-4.553 3.897-6.48 2.955-2.699-1.337-7.048-2.532-8.738-2.341-2.015.173-2.593.961-2.687 3.598Zm8.141 3.961c.398.335.404.934.069 1.332-.711.845-.852.811-1.57-.557-.603-1.102.406-1.696 1.501-.775Zm-2.103 13.513c.647.544 2.231 3.914 1.98 4.212-.502.597-5.416 1.388-5.914.969-.249-.209-.079-.916.365-1.646.729-1.169 3.32-3.744 3.569-3.535Zm7.852-8.932c1.585-.874 2.342-.662 5.788 1.303 1.943 1.125 2.001 1.258 1.227 5.107l-.857 3.949-3.016.859-3.059.908-1.512-2.546c-2.753-4.608-2.308-7.46 1.429-9.58Zm9.651-8.947c.545.968-.284 4.176-1.134 4.48-.267.115-1.115-.089-1.788-.4-1.105-.505-.995-.838.636-2.777 1.338-1.591 1.906-1.963 2.286-1.303Zm-5.688 26.968c.149.125.231.534.129.958-.06.374-.368.539-.617.329-.299-.251-.339-.709-.13-.957.251-.299.518-.414.618-.33Z"/><path fill="url(#ac)" d="M122.256 610.969c-1.361.119-3.694.987-5.204 1.883-2.309 1.363-2.975 2.225-4.494 5.754-1.534 3.384-1.744 4.694-1.529 8.034l.316 4.003-4.964.861c-6.332 1.187-14.294 1.351-22.45.542-5.286-.507-7.897-1.13-14.68-3.58-4.507-1.674-8.824-3.485-9.61-3.985-.761-.56-1.88-.907-2.48-.783-.996.255-1.041.377-.453 1.219 1.687 2.362 5.48 4.464 12.933 7.163 6.64 2.466 9.044 3.082 15.191 3.7 8.194.892 15.973.66 23.377-.614 5.086-.816 5.086-.816 6.117.885 1.712 2.856 7.211 8.575 11.22 11.59 7.272 5.615 15.221 8.845 31.309 12.739l3.182.766.649 3.848c1.786 10.307 12.695 21.989 24.693 26.446 8.588 3.19 20.972 4.182 33.669 2.654 7.101-.831 11.623-1.996 12.03-3.093.363-.976-1.052-1.085-10.094-.628-16.227.772-23.5.013-32.636-3.38-10.232-3.801-17.261-9.88-21.126-18.323-3.214-7.021-3.017-7.364 3.934-7.418 17.028-.127 30.199-8.347 28.044-17.472-1.363-5.848-7.021-8.713-15.743-7.998-5.915.439-12.554 3.385-16.635 7.28-2.336 2.185-3.509 4.038-5.225 7.91l-2.267 4.985-4.391-.867c-2.389-.471-7.497-2.022-11.395-3.469-10.719-3.982-18.316-9.093-23.316-15.598l-2.222-2.976 3.995-1.985c4.58-2.253 8.933-6.324 10.066-9.373.996-2.682.247-6.637-1.529-8.199-1.975-1.774-5.538-2.819-8.282-2.521Zm6.136 7.552c.001 2.983-3.669 6.893-8.409 9.017-3.213 1.373-3.777 1.025-4.197-2.322-.451-3.636 1.978-7.937 5.146-9.189 3.479-1.343 7.422-.018 7.46 2.494Zm65.834 25.215c.558 1.109.821 2.456.617 3.004-1.336 3.597-8.929 7.992-15.588 9.126-3.641.659-12.409.941-13.627.488-.365-.135-.02-1.811.704-3.762 2.423-6.523 9.558-11.365 17.975-12.193 5.528-.514 8.679.518 9.919 3.337Z"/><path fill="url(#ad)" d="M1004.23 338.051c-10.19-4.068-25.299-2.567-36.408 3.596-3.917 2.221-4.829 2.325-8.476.544-4.725-2.257-14.87-3.983-19.108-3.162-3.949.738-6.187 4.99-4.581 8.69 1.347 3.067 8.403 11.015 13.698 15.542 2.352 1.916 3.274 3.771 3.574 7.845 2.63 27.345 27.021 45.162 52.441 38.276 8.31-2.223 8.46-2.265 16.71 1.1 13.62 5.362 22.5 4.311 23.09-2.687.33-4.333-4.36-10.602-10.84-14.321-4.98-2.889-5.34-3.335-4.57-5.833 4.59-15.283-.76-32.903-12.74-41.874-2.03-1.616-4.53-3.491-5.5-4.154-.92-.756-4.2-2.33-7.29-3.562Zm12.9 15.222c4.69 5.17 8.82 17.721 8.3 25.248-.29 3.379-1.43 7.63-2.77 10.056-2.8 5.04-7.51 9.998-9.66 10.144-2.11.053-19.701-10.449-34.445-20.59-20.579-14.356-20.403-14.014-15.687-22.507 6.425-11.572 19.969-17.727 32.207-14.717 7.325 1.748 17.715 7.641 22.055 12.366Zm-59.34.508c-2.902 5.227-3.295 5.496-5.161 4.461-2.517-1.398-8.734-7.781-10.796-10.879-.715-1.13-.85-2.425-.166-2.778 1.959-1.11 13.077.179 16.248 1.94l2.984 1.657-3.109 5.599Zm79.36 49.561c1.45 1.782 2.14 3.627 1.59 4.177-1.74 1.597-7.3.833-13.53-2.015l-5.81-2.495 2.06-2.395c4.77-5.29 4.63-5.248 9.01-2.815 2.33 1.295 5.32 3.812 6.68 5.543Zm-51.591-13.874c10.538 6.95 19.301 12.917 19.431 13.352.42 1.213-6.345 1.973-13.06 1.541-9.378-.689-19.677-6.53-25.542-14.426-3.875-5.326-7.926-15.39-6.889-17.257.259-.466 1.896.321 3.699 1.688 1.709 1.316 11.823 8.152 22.361 15.102Z"/><path fill="url(#ae)" d="M196.655 406.827c-2.729 1.171-6.043 5.138-6.497 7.804-1.3 6.633 5.587 13.527 15.138 15.348 4.613.845 7.667.195 10.266-2.276 1.884-1.821 2.209-2.537 2.209-5.138 0-5.723-3.964-10.08-9.681-10.665-6.497-.586-9.226 2.926-6.497 8.519 2.404 4.942 5.197 4.812 3.833-.13-.39-1.496-.52-2.992-.325-3.317 1.17-1.886 7.017.716 8.122 3.642.909 2.276.844 2.666-.65 4.162-3.834 3.837-16.698-.975-18.452-6.958-.65-2.081 1.169-5.853 3.638-7.349 1.755-1.106 3.119-1.301 7.862-1.236 3.118.065 5.847-.065 6.042-.26 2.274-2.276-10.59-4.097-15.008-2.146Z"/><path fill="url(#af)" d="M799.655 437.827c-2.729 1.171-6.043 5.138-6.497 7.804-1.3 6.633 5.587 13.527 15.138 15.348 4.613.845 7.667.195 10.266-2.276 1.884-1.821 2.209-2.537 2.209-5.138 0-5.723-3.964-10.08-9.681-10.665-6.497-.586-9.226 2.926-6.497 8.519 2.404 4.942 5.197 4.812 3.833-.13-.39-1.496-.52-2.992-.325-3.317 1.17-1.886 7.017.716 8.122 3.642.909 2.276.844 2.666-.65 4.162-3.834 3.837-16.698-.975-18.452-6.958-.65-2.081 1.169-5.853 3.638-7.349 1.755-1.106 3.119-1.301 7.862-1.236 3.118.065 5.847-.065 6.042-.26 2.274-2.276-10.59-4.097-15.008-2.146Z"/><path fill="url(#ag)" d="M901.655 566.827c-2.729 1.171-6.043 5.138-6.497 7.804-1.3 6.633 5.587 13.527 15.138 15.348 4.613.845 7.667.195 10.266-2.276 1.884-1.821 2.209-2.537 2.209-5.138 0-5.723-3.964-10.08-9.681-10.665-6.497-.586-9.226 2.926-6.497 8.519 2.404 4.942 5.197 4.812 3.833-.13-.39-1.496-.52-2.992-.325-3.317 1.17-1.886 7.017.716 8.122 3.642.909 2.276.844 2.666-.65 4.162-3.834 3.837-16.698-.975-18.452-6.958-.65-2.081 1.169-5.853 3.638-7.349 1.755-1.106 3.119-1.301 7.862-1.236 3.118.065 5.847-.065 6.042-.26 2.274-2.276-10.59-4.097-15.008-2.146Z"/><path fill="url(#ah)" d="M89.2 512.427c2.573 1.102 2.895-.415.783-3.723-2.756-4.319-2.845-10.57-.177-15.352 2.07-3.816 1.382-5.332-1.699-3.63-3.586 2.116-5.656 6.575-5.383 11.631.365 5.424 2.753 9.467 6.476 11.074Z"/><path fill="url(#ai)" d="M111.305 519.817c4.963 2.388 8.823 3.213 14.523 3.119 6.527-.095 12.227-1.293 18.065-3.824 2.575-1.104 4.827-2.07 5.011-2.07.138-.046.367 1.654.504 3.814.411 6.113 4.131 11.673 8.451 12.59 4.826.963 12.181-1.338 19.63-6.122 2.528-1.61 5.241-3.036 5.93-3.082.736-.093 6.067.64 11.812 1.603 10.893 1.787 14.891 1.923 16.409.406 1.104-1.104.139-2.069-3.308-3.216-1.471-.459-4.641-2.342-7.03-4.179-2.298-1.838-6.387-4.64-9.052-6.293-8.685-5.374-10.201-6.522-10.338-7.855-.046-.69.369-3.677.968-6.665 1.751-8.918.237-15.766-4.403-20.498-3.859-3.859-10.018-4.775-17.097-2.474l-2.345.691.324-3.172c.692-5.838.19-13.973-1.049-17.604-1.607-4.641-5.052-8.362-8.591-9.326-4.09-1.055-9.561 1.108-14.849 5.936l-4.369 3.909-1.148-1.7c-10.243-14.933-22.327-22.879-33.956-22.276-3.907.231-8.964 2.164-11.08 4.279-1.977 1.978-4.048 7.081-4.233 10.666-.648 9.377 6.564 18.52 21.498 27.292 3.216 1.929 6.019 3.812 6.203 4.272.23.413-1.15 2.436-3.68 5.333-6.346 7.265-7.818 10.851-6.902 17.378 1.053 7.767 6.887 15.716 14.102 19.068Zm-9.646-14.98c-2.984-7.398-1.74-11.857 5.341-19.95 6.623-7.541 6.439-8.001-4.497-14.615-4.687-2.847-7.398-4.914-11.257-8.773-4.594-4.503-5.237-5.422-6.477-8.868-4.36-11.903 5.663-20.549 18.531-15.866 7.583 2.708 14.153 8.175 20.951 17.364 3.491 4.687 4.088 5.284 5.651 5.651 2.022.367 1.654.643 7.218-4.738 12.6-12.232 20.916-4.468 18.332 17.228-.462 3.953-.509 7.492-.188 7.814.873.873 2.436.596 5.47-.876 5.425-2.576 11.952-2.212 15.122.958 3.583 3.584 4.683 11.397 2.748 20.131-.875 3.815-.416 6.389 1.421 8.227.552.551 4.411 3.215 8.547 5.879 10.292 6.706 12.176 8.038 11.624 8.59-.275.276-4.044-.182-8.41-1.053-4.366-.78-8.641-1.283-9.468-1.099-.874.23-3.264 1.518-5.333 2.852-7.403 4.83-15.034 7.407-18.802 6.306-3.631-1.147-6.432-7.995-5.326-13.235.691-2.988-.044-4.918-1.744-4.871-.69.046-3.126 1.104-5.471 2.254-11.586 6.073-25.099 6.631-34.473 1.487-3.539-1.974-8.041-7.028-9.51-10.797Z"/><path fill="url(#aj)" d="M131.522 533.413c1.103-.093 3.723-.508 5.792-1.014l3.815-.875 1.562 3.124c1.607 3.355 3.353 4.825 4.364 3.813.322-.321.369-1.287.093-2.206-.275-.827-.871-3.355-1.238-5.561-1.146-5.653-1.974-5.836-10.479-2.109-3.815 1.61-6.896 3.128-6.896 3.404 0 1.011 1.149 1.516 2.987 1.424Z"/><path fill="url(#ak)" d="M186.769 536.237c4.688-.186 10.71-.971 12.181-1.615 1.609-.782 1.012-2.023-1.056-2.16-2.804-.136-14.571 1.432-15.123 1.984-1.196 1.196.458 1.93 3.998 1.791Z"/><path fill="url(#al)" d="M201.258 512.375c6.434 3.03 9.146 3.351 7.86.869-.597-1.148-9.972-5.832-12.086-6.015-3.171-.32-.645 2.758 4.226 5.146Z"/><path fill="url(#am)" d="M138.736 440.747c.459.092 2.068-.231 3.631-.691 3.54-1.151 6.16-1.106 9.928.363 3.998 1.515 8.271 5.696 10.153 10.061 1.332 2.987 1.47 3.217 2.481 2.757 1.471-.644.968-5.194-.915-8.549-2.939-5.238-10.429-9.877-15.807-9.737-3.401.094-7.677 1.613-9.562 3.498-1.472 1.472-1.472 2.023.091 2.298Z"/><path fill="url(#an)" d="M504.45 2.416c-3.04 1.531-6.606 5.328-7.754 8.345-1.842 4.856-2.707 12.954-1.706 17.128.894 3.732.576 4.075-2.952 3.851-6.899-.352-13.043 2.726-14.125 7.132-.819 3.272.573 7.687 3.626 11.502 2.851 3.53 8.769 7.595 12.26 8.497 2.484.608 2.638.972 1.119 3.276-1.855 2.852-1.59 4.795 1.246 8.261 3.74 4.454 8.835 7.311 16.758 9.424 11.177 2.871 21.756 2.408 25.305-1.184 1.256-1.17 4.349-8.332 5.186-11.81.033-.142 1.307.155 2.863.517 2.06.51 3.448.445 5.409-.293 9.727-3.737 22.397-23.627 23.628-37.163.42-4.38-1.397-12.238-3.437-14.892-3.409-4.466-9.509-5.946-13.71-3.4-2.805 1.675-5.191 3.986-7.857 7.634-1.165 1.55-2.265 2.817-2.517 2.878-.253.06-1.153-1.463-2.08-3.38-3.012-6.434-8.057-9.638-13.361-8.634-2.859.618-3.015.522-5.07-2.195-2.148-2.83-6.801-5.793-10.432-6.728-1.698-.395-9.169-.343-10.134.089-.175.109-1.203.556-2.265 1.145Zm9.007 4.127c3.778.431 7.213 2.216 9.662 4.906l2.12 2.434-1.61 3.596c-2.03 4.633-2.5 7.688-1.914 12.363.488 3.427.326 3.867-1.521 5.915-3.248 3.454-4.742 13.107-3.183 19.89.304 1.264.387 2.448.243 2.683-.129.299-2.191.057-4.582-.44-2.391-.496-5.934-.784-7.92-.709-6.465.346-13.665-3.21-18.636-9.175-2.618-3.117-3.583-6.029-2.696-8.18.95-2.168 6.255-3.172 11.509-2.158 4.357.895 6.834.635 7.319-.685.162-.44-.283-3.41-.993-6.65-2.019-9.815-.492-17.938 4.08-21.442 2.747-2.197 4.564-2.7 8.122-2.348Zm21.749 8.227c3.051.74 5.664 4.394 7.45 10.452 2.613 8.67 4.347 8.655 10.215-.309 4.797-7.302 7.974-9.936 11.247-9.383 2.706.42 4.432 2.883 5.661 8.005 1.137 4.743.229 10.712-2.687 17.497-3.804 8.937-13.148 20.406-17.507 21.45-2.022.486-5.517.12-5.684-.576.018-.205-.058-2.193-.053-4.401.033-5.157-1.801-12.81-3.957-16.506-2.512-4.346-6.189-7.143-10.688-8.07-3.727-.779-3.884-.875-3.975-2.927-.161-4.575 1.527-9.795 4.234-12.718 2.914-3.173 3.04-3.203 5.744-2.514Zm-3.498 24.981c2.739 1.951 4.91 5.711 6.108 10.707 1.71 7.414.497 19.074-2.743 25.067l-1.572 2.918-4.994-.207c-10.051-.4-20.45-3.925-26.313-8.872-3.19-2.713-3.533-4.704-1.062-6.099 2.71-1.519 5.735-1.442 12.606.188 6.51 1.515 8.244 1.501 9.063-.1.258-.596.068-3.895-.386-7.464-.968-7.66-.705-12.136.885-15.26.98-2.04 1.44-2.35 3.475-2.504 1.625-.189 3.164.378 4.933 1.626Z"/><defs><linearGradient id="H" x1="355.606" x2="355.269" y1="568.73" y2="574.088" gradientUnits="userSpaceOnUse"><stop stop-color="#42307D"/><stop offset="1" stop-color="#7F56D9"/></linearGradient><linearGradient id="a" x1="666.928" x2="659.99" y1="38.579" y2="193.193" gradientUnits="userSpaceOnUse"><stop stop-color="#42307D"/><stop offset="1" stop-color="#7F56D9"/></linearGradient><linearGradient id="c" x1="709.921" x2="718.081" y1="178.367" y2="192.848" gradientUnits="userSpaceOnUse"><stop stop-color="#42307D"/><stop offset="1" stop-color="#7F56D9"/></linearGradient><linearGradient id="d" x1="641.535" x2="647.936" y1="139.946" y2="154.55" gradientUnits="userSpaceOnUse"><stop stop-color="#42307D"/><stop offset="1" stop-color="#7F56D9"/></linearGradient><linearGradient id="e" x1="671.439" x2="678.727" y1="184.446" y2="203.171" gradientUnits="userSpaceOnUse"><stop stop-color="#42307D"/><stop offset="1" stop-color="#7F56D9"/></linearGradient><linearGradient id="f" x1="636.373" x2="641.224" y1="167.216" y2="178.369" gradientUnits="userSpaceOnUse"><stop stop-color="#42307D"/><stop offset="1" stop-color="#7F56D9"/></linearGradient><linearGradient id="g" x1="341.675" x2="408.038" y1="117" y2="237.495" gradientUnits="userSpaceOnUse"><stop stop-color="#42307D"/><stop offset="1" stop-color="#7F56D9"/></linearGradient><linearGradient id="h" x1="363.744" x2="432.968" y1="139.207" y2="251.947" gradientUnits="userSpaceOnUse"><stop stop-color="#42307D"/><stop offset="1" stop-color="#7F56D9"/></linearGradient><linearGradient id="i" x1="332" x2="355.215" y1="170.229" y2="183.761" gradientUnits="userSpaceOnUse"><stop stop-color="#42307D"/><stop offset="1" stop-color="#7F56D9"/></linearGradient><linearGradient id="j" x1="500.934" x2="516.779" y1="184.626" y2="190.609" gradientUnits="userSpaceOnUse"><stop stop-color="#42307D"/><stop offset="1" stop-color="#7F56D9"/></linearGradient><linearGradient id="k" x1="658.998" x2="803.899" y1="254.737" y2="385.902" gradientUnits="userSpaceOnUse"><stop stop-color="#42307D"/><stop offset="1" stop-color="#7F56D9"/></linearGradient><linearGradient id="l" x1="698.059" x2="723.404" y1="280.085" y2="284.457" gradientUnits="userSpaceOnUse"><stop stop-color="#42307D"/><stop offset="1" stop-color="#7F56D9"/></linearGradient><linearGradient id="m" x1="754.873" x2="804.824" y1="305.35" y2="337.621" gradientUnits="userSpaceOnUse"><stop stop-color="#42307D"/><stop offset="1" stop-color="#7F56D9"/></linearGradient><linearGradient id="n" x1="683.085" x2="691.067" y1="354.729" y2="361.514" gradientUnits="userSpaceOnUse"><stop stop-color="#42307D"/><stop offset="1" stop-color="#7F56D9"/></linearGradient><linearGradient id="o" x1="728.262" x2="734.513" y1="365.579" y2="376.158" gradientUnits="userSpaceOnUse"><stop stop-color="#42307D"/><stop offset="1" stop-color="#7F56D9"/></linearGradient><linearGradient id="p" x1="229.442" x2="396.556" y1="347.822" y2="312.848" gradientUnits="userSpaceOnUse"><stop stop-color="#42307D"/><stop offset="1" stop-color="#7F56D9"/></linearGradient><linearGradient id="q" x1="415.943" x2="415.528" y1="557.677" y2="563.918" gradientUnits="userSpaceOnUse"><stop stop-color="#42307D"/><stop offset="1" stop-color="#7F56D9"/></linearGradient><linearGradient id="r" x1="339.741" x2="348.159" y1="510.158" y2="546.984" gradientUnits="userSpaceOnUse"><stop stop-color="#42307D"/><stop offset="1" stop-color="#7F56D9"/></linearGradient><linearGradient id="s" x1="387.433" x2="386.274" y1="544.898" y2="550.888" gradientUnits="userSpaceOnUse"><stop stop-color="#42307D"/><stop offset="1" stop-color="#7F56D9"/></linearGradient><linearGradient id="t" x1="373.081" x2="371.482" y1="538.129" y2="545.218" gradientUnits="userSpaceOnUse"><stop stop-color="#42307D"/><stop offset="1" stop-color="#7F56D9"/></linearGradient><linearGradient id="u" x1="356.122" x2="354.34" y1="531.002" y2="538.692" gradientUnits="userSpaceOnUse"><stop stop-color="#42307D"/><stop offset="1" stop-color="#7F56D9"/></linearGradient><linearGradient id="v" x1="351.081" x2="349.877" y1="540.433" y2="547.968" gradientUnits="userSpaceOnUse"><stop stop-color="#42307D"/><stop offset="1" stop-color="#7F56D9"/></linearGradient><linearGradient id="w" x1="236.615" x2="242.967" y1="461.162" y2="496.224" gradientUnits="userSpaceOnUse"><stop stop-color="#42307D"/><stop offset="1" stop-color="#7F56D9"/></linearGradient><linearGradient id="x" x1="319.192" x2="317.683" y1="518.732" y2="523.442" gradientUnits="userSpaceOnUse"><stop stop-color="#42307D"/><stop offset="1" stop-color="#7F56D9"/></linearGradient><linearGradient id="y" x1="305.519" x2="303.906" y1="511.167" y2="516.494" gradientUnits="userSpaceOnUse"><stop stop-color="#42307D"/><stop offset="1" stop-color="#7F56D9"/></linearGradient><linearGradient id="z" x1="371.058" x2="376.198" y1="556.96" y2="591.936" gradientUnits="userSpaceOnUse"><stop stop-color="#42307D"/><stop offset="1" stop-color="#7F56D9"/></linearGradient><linearGradient id="A" x1="288.39" x2="287.036" y1="500.55" y2="505.397" gradientUnits="userSpaceOnUse"><stop stop-color="#42307D"/><stop offset="1" stop-color="#7F56D9"/></linearGradient><linearGradient id="B" x1="272.146" x2="270.534" y1="490.716" y2="495.397" gradientUnits="userSpaceOnUse"><stop stop-color="#42307D"/><stop offset="1" stop-color="#7F56D9"/></linearGradient><linearGradient id="C" x1="328.325" x2="329.993" y1="530.646" y2="537.235" gradientUnits="userSpaceOnUse"><stop stop-color="#42307D"/><stop offset="1" stop-color="#7F56D9"/></linearGradient><linearGradient id="D" x1="359.892" x2="359.533" y1="553.443" y2="561.549" gradientUnits="userSpaceOnUse"><stop stop-color="#42307D"/><stop offset="1" stop-color="#7F56D9"/></linearGradient><linearGradient id="E" x1="256.867" x2="255.485" y1="482.525" y2="488.071" gradientUnits="userSpaceOnUse"><stop stop-color="#42307D"/><stop offset="1" stop-color="#7F56D9"/></linearGradient><linearGradient id="F" x1="317.436" x2="320.473" y1="532.646" y2="542.364" gradientUnits="userSpaceOnUse"><stop stop-color="#42307D"/><stop offset="1" stop-color="#7F56D9"/></linearGradient><linearGradient id="G" x1="248.444" x2="248.651" y1="494.044" y2="500.01" gradientUnits="userSpaceOnUse"><stop stop-color="#42307D"/><stop offset="1" stop-color="#7F56D9"/></linearGradient><linearGradient id="b" x1="681.152" x2="689.142" y1="157.072" y2="175.021" gradientUnits="userSpaceOnUse"><stop stop-color="#42307D"/><stop offset="1" stop-color="#7F56D9"/></linearGradient><linearGradient id="I" x1="344.868" x2="344.542" y1="565.997" y2="573.597" gradientUnits="userSpaceOnUse"><stop stop-color="#42307D"/><stop offset="1" stop-color="#7F56D9"/></linearGradient><linearGradient id="J" x1="252.65" x2="254.023" y1="504.403" y2="512.155" gradientUnits="userSpaceOnUse"><stop stop-color="#42307D"/><stop offset="1" stop-color="#7F56D9"/></linearGradient><linearGradient id="K" x1="298.451" x2="300.54" y1="538.25" y2="548.367" gradientUnits="userSpaceOnUse"><stop stop-color="#42307D"/><stop offset="1" stop-color="#7F56D9"/></linearGradient><linearGradient id="L" x1="255.148" x2="256.055" y1="518.512" y2="526.186" gradientUnits="userSpaceOnUse"><stop stop-color="#42307D"/><stop offset="1" stop-color="#7F56D9"/></linearGradient><linearGradient id="M" x1="310.606" x2="309.296" y1="557.162" y2="566.303" gradientUnits="userSpaceOnUse"><stop stop-color="#42307D"/><stop offset="1" stop-color="#7F56D9"/></linearGradient><linearGradient id="N" x1="283.106" x2="286.233" y1="542.389" y2="552.412" gradientUnits="userSpaceOnUse"><stop stop-color="#42307D"/><stop offset="1" stop-color="#7F56D9"/></linearGradient><linearGradient id="O" x1="294.482" x2="293.058" y1="552.311" y2="562.24" gradientUnits="userSpaceOnUse"><stop stop-color="#42307D"/><stop offset="1" stop-color="#7F56D9"/></linearGradient><linearGradient id="P" x1="258.553" x2="264.834" y1="531.989" y2="567.521" gradientUnits="userSpaceOnUse"><stop stop-color="#42307D"/><stop offset="1" stop-color="#7F56D9"/></linearGradient><linearGradient id="Q" x1="278.953" x2="277.822" y1="549.397" y2="556.547" gradientUnits="userSpaceOnUse"><stop stop-color="#42307D"/><stop offset="1" stop-color="#7F56D9"/></linearGradient><linearGradient id="R" x1="786.999" x2="967.933" y1="618.763" y2="619.199" gradientUnits="userSpaceOnUse"><stop stop-color="#42307D"/><stop offset="1" stop-color="#7F56D9"/></linearGradient><linearGradient id="S" x1="887.581" x2="921.457" y1="641.3" y2="652.624" gradientUnits="userSpaceOnUse"><stop stop-color="#42307D"/><stop offset="1" stop-color="#7F56D9"/></linearGradient><linearGradient id="T" x1="956.685" x2="1052.44" y1="579.688" y2="588.668" gradientUnits="userSpaceOnUse"><stop stop-color="#42307D"/><stop offset="1" stop-color="#7F56D9"/></linearGradient><linearGradient id="U" x1="323.811" x2="285.174" y1="577.999" y2="699.574" gradientUnits="userSpaceOnUse"><stop stop-color="#42307D"/><stop offset="1" stop-color="#7F56D9"/></linearGradient><linearGradient id="V" x1="806.691" x2="851.43" y1="321.494" y2="306.585" gradientUnits="userSpaceOnUse"><stop stop-color="#42307D"/><stop offset="1" stop-color="#7F56D9"/></linearGradient><linearGradient id="W" x1="716.395" x2="793.094" y1="465.291" y2="489.446" gradientUnits="userSpaceOnUse"><stop stop-color="#42307D"/><stop offset="1" stop-color="#7F56D9"/></linearGradient><linearGradient id="X" x1="372.207" x2="475.533" y1="374.632" y2="307.765" gradientUnits="userSpaceOnUse"><stop stop-color="#42307D"/><stop offset="1" stop-color="#7F56D9"/></linearGradient><linearGradient id="Y" x1="827.111" x2="871.08" y1="475" y2="569.139" gradientUnits="userSpaceOnUse"><stop stop-color="#42307D"/><stop offset="1" stop-color="#7F56D9"/></linearGradient><linearGradient id="Z" x1="850.999" x2="893.294" y1="406" y2="454.617" gradientUnits="userSpaceOnUse"><stop stop-color="#42307D"/><stop offset="1" stop-color="#7F56D9"/></linearGradient><linearGradient id="aa" x1="157.404" x2="221.835" y1="584.392" y2="583.319" gradientUnits="userSpaceOnUse"><stop stop-color="#42307D"/><stop offset="1" stop-color="#7F56D9"/></linearGradient><linearGradient id="ab" x1="243" x2="307.43" y1="260.567" y2="259.495" gradientUnits="userSpaceOnUse"><stop stop-color="#42307D"/><stop offset="1" stop-color="#7F56D9"/></linearGradient><linearGradient id="ac" x1="68.998" x2="61.478" y1="589.999" y2="694.507" gradientUnits="userSpaceOnUse"><stop stop-color="#42307D"/><stop offset="1" stop-color="#7F56D9"/></linearGradient><linearGradient id="ad" x1="954.006" x2="956.224" y1="309.583" y2="437.693" gradientUnits="userSpaceOnUse"><stop stop-color="#42307D"/><stop offset="1" stop-color="#7F56D9"/></linearGradient><linearGradient id="ae" x1="190" x2="214.118" y1="406" y2="433.53" gradientUnits="userSpaceOnUse"><stop stop-color="#42307D"/><stop offset="1" stop-color="#7F56D9"/></linearGradient><linearGradient id="af" x1="793" x2="817.118" y1="437" y2="464.53" gradientUnits="userSpaceOnUse"><stop stop-color="#42307D"/><stop offset="1" stop-color="#7F56D9"/></linearGradient><linearGradient id="ag" x1="895" x2="919.118" y1="566" y2="593.53" gradientUnits="userSpaceOnUse"><stop stop-color="#42307D"/><stop offset="1" stop-color="#7F56D9"/></linearGradient><linearGradient id="ah" x1="89.809" x2="90.173" y1="513.935" y2="487.968" gradientUnits="userSpaceOnUse"><stop stop-color="#42307D"/><stop offset="1" stop-color="#7F56D9"/></linearGradient><linearGradient id="ai" x1="163.731" x2="205.905" y1="574.163" y2="435.404" gradientUnits="userSpaceOnUse"><stop stop-color="#42307D"/><stop offset="1" stop-color="#7F56D9"/></linearGradient><linearGradient id="aj" x1="140.794" x2="142.435" y1="544.723" y2="521.59" gradientUnits="userSpaceOnUse"><stop stop-color="#42307D"/><stop offset="1" stop-color="#7F56D9"/></linearGradient><linearGradient id="ak" x1="190.388" x2="188.906" y1="543.386" y2="525.574" gradientUnits="userSpaceOnUse"><stop stop-color="#42307D"/><stop offset="1" stop-color="#7F56D9"/></linearGradient><linearGradient id="al" x1="205.621" x2="209.916" y1="518.315" y2="507.919" gradientUnits="userSpaceOnUse"><stop stop-color="#42307D"/><stop offset="1" stop-color="#7F56D9"/></linearGradient><linearGradient id="am" x1="157.795" x2="165.58" y1="460.461" y2="433.359" gradientUnits="userSpaceOnUse"><stop stop-color="#42307D"/><stop offset="1" stop-color="#7F56D9"/></linearGradient><linearGradient id="an" x1="469.999" x2="573.102" y1="10.058" y2="85.657" gradientUnits="userSpaceOnUse"><stop stop-color="#42307D"/><stop offset="1" stop-color="#7F56D9"/></linearGradient></defs></svg>