<svg width="232" height="48" viewBox="0 0 232 48" fill="none" xmlns="http://www.w3.org/2000/svg">
<path fill-rule="evenodd" clip-rule="evenodd" d="M232 24C232 37.2548 221.255 48 208 48C194.745 48 184 37.2548 184 24C184 10.7452 194.745 0 208 0C221.255 0 232 10.7452 232 24ZM208.86 17.7179C206.526 18.6888 201.86 20.6984 194.864 23.7466C193.728 24.1984 193.133 24.6404 193.078 25.0726C192.987 25.803 193.901 26.0906 195.147 26.4822C195.316 26.5355 195.492 26.5907 195.672 26.6492C196.897 27.0475 198.546 27.5135 199.403 27.5321C200.18 27.5489 201.047 27.2284 202.005 26.5707C208.542 22.158 211.917 19.9276 212.129 19.8795C212.278 19.8456 212.485 19.803 212.626 19.9277C212.766 20.0524 212.752 20.2886 212.737 20.352C212.647 20.7383 209.056 24.0762 207.198 25.8036C206.619 26.3421 206.208 26.724 206.124 26.8113C205.936 27.0067 205.744 27.1915 205.56 27.3692C204.422 28.4667 203.568 29.2896 205.607 30.6336C206.587 31.2794 207.372 31.8135 208.154 32.3463C209.008 32.9282 209.861 33.5085 210.963 34.2313C211.244 34.4155 211.512 34.6068 211.774 34.7931C212.768 35.5019 213.661 36.1388 214.765 36.0373C215.406 35.9782 216.069 35.3752 216.405 33.5767C217.2 29.3263 218.763 20.1169 219.124 16.3219C219.156 15.9895 219.116 15.5639 219.084 15.3771C219.052 15.1904 218.986 14.9242 218.743 14.7272C218.455 14.4939 218.011 14.4447 217.813 14.4482C216.91 14.4641 215.525 14.9456 208.86 17.7179Z" fill="white"/>
<g clip-path="url(#clip0_3508_5)">
<path fill-rule="evenodd" clip-rule="evenodd" d="M116.02 0C102.737 0 92 10.8167 92 24.1983C92 34.895 98.8799 43.9495 108.424 47.1542C109.617 47.3951 110.054 46.6335 110.054 45.9929C110.054 45.4319 110.015 43.509 110.015 41.5055C103.333 42.948 101.942 38.6209 101.942 38.6209C100.868 35.8164 99.2772 35.0956 99.2772 35.0956C97.0902 33.6132 99.4365 33.6132 99.4365 33.6132C101.862 33.7735 103.135 36.0971 103.135 36.0971C105.282 39.7827 108.742 38.7413 110.134 38.1002C110.333 36.5377 110.969 35.456 111.646 34.8552C106.316 34.2942 100.709 32.211 100.709 22.9161C100.709 20.2719 101.663 18.1086 103.175 16.4261C102.936 15.8253 102.101 13.3409 103.414 10.0157C103.414 10.0157 105.442 9.3746 110.015 12.4996C111.973 11.9699 113.992 11.7005 116.02 11.6982C118.048 11.6982 120.115 11.979 122.025 12.4996C126.598 9.3746 128.626 10.0157 128.626 10.0157C129.939 13.3409 129.103 15.8253 128.865 16.4261C130.416 18.1086 131.33 20.2719 131.33 22.9161C131.33 32.211 125.723 34.2539 120.354 34.8552C121.23 35.6163 121.985 37.0583 121.985 39.3421C121.985 42.5871 121.945 45.1915 121.945 45.9924C121.945 46.6335 122.383 47.3951 123.576 47.1547C133.12 43.9491 140 34.895 140 24.1983C140.039 10.8167 129.262 0 116.02 0Z" fill="white"/>
</g>
<path d="M44.4469 0H3.54375C1.58437 0 0 1.54688 0 3.45938V44.5312C0 46.4437 1.58437 48 3.54375 48H44.4469C46.4062 48 48 46.4438 48 44.5406V3.45938C48 1.54688 46.4062 0 44.4469 0ZM14.2406 40.9031H7.11563V17.9906H14.2406V40.9031ZM10.6781 14.8688C8.39062 14.8688 6.54375 13.0219 6.54375 10.7437C6.54375 8.46562 8.39062 6.61875 10.6781 6.61875C12.9563 6.61875 14.8031 8.46562 14.8031 10.7437C14.8031 13.0125 12.9563 14.8688 10.6781 14.8688ZM40.9031 40.9031H33.7875V29.7656C33.7875 27.1125 33.7406 23.6906 30.0844 23.6906C26.3812 23.6906 25.8187 26.5875 25.8187 29.5781V40.9031H18.7125V17.9906H25.5375V21.1219H25.6312C26.5781 19.3219 28.9031 17.4188 32.3625 17.4188C39.5719 17.4188 40.9031 22.1625 40.9031 28.3313V40.9031Z" fill="white"/>
<defs>
<clipPath id="clip0_3508_5">
<rect width="48" height="48" fill="white" transform="translate(92)"/>
</clipPath>
</defs>
</svg>
